<svg width="14" height="14" viewBox="0 0 14 14" fill="none" xmlns="http://www.w3.org/2000/svg">
<path d="M2.51883 3.68548C2.27507 3.92924 2.08171 4.21862 1.94979 4.5371C1.81787 4.85558 1.74997 5.19693 1.74997 5.54165C1.74997 5.88637 1.81787 6.22772 1.94979 6.5462C2.08171 6.86468 2.27507 7.15406 2.51883 7.39782L6.99999 11.879L11.4812 7.39782C11.9734 6.90553 12.25 6.23785 12.25 5.54165C12.25 4.84545 11.9734 4.17777 11.4812 3.68548C10.9889 3.1932 10.3212 2.91663 9.62499 2.91663C8.92879 2.91663 8.26111 3.1932 7.76883 3.68548L6.99999 4.45432L6.23116 3.68548C5.9874 3.44172 5.69803 3.24837 5.37954 3.11645C5.06106 2.98452 4.71971 2.91663 4.37499 2.91663C4.03027 2.91663 3.68892 2.98452 3.37044 3.11645C3.05196 3.24837 2.76258 3.44172 2.51883 3.68548V3.68548Z" stroke="#111111" stroke-width="2" stroke-linecap="round" stroke-linejoin="round"/>
</svg>
